<svg width="15" height="16" viewBox="0 0 15 16" fill="none" xmlns="http://www.w3.org/2000/svg">
<path d="M0.833252 13.0001C0.833252 12.116 1.18444 11.2682 1.80956 10.6431C2.43468 10.0179 3.28253 9.66675 4.16659 9.66675H10.8333C11.7173 9.66675 12.5652 10.0179 13.1903 10.6431C13.8154 11.2682 14.1666 12.116 14.1666 13.0001C14.1666 13.4421 13.991 13.866 13.6784 14.1786C13.3659 14.4912 12.9419 14.6667 12.4999 14.6667H2.49992C2.05789 14.6667 1.63397 14.4912 1.32141 14.1786C1.00885 13.866 0.833252 13.4421 0.833252 13.0001Z" stroke="white" stroke-width="1.66667" stroke-linejoin="round"/>
<path d="M7.5 6.33337C8.88071 6.33337 10 5.21409 10 3.83337C10 2.45266 8.88071 1.33337 7.5 1.33337C6.11929 1.33337 5 2.45266 5 3.83337C5 5.21409 6.11929 6.33337 7.5 6.33337Z" stroke="white" stroke-width="1.66667"/>
</svg>
