<svg width="15" height="14" viewBox="0 0 15 14" fill="none" xmlns="http://www.w3.org/2000/svg">
<path d="M11.4456 8.54675C11.2729 8.71408 11.1936 8.95608 11.2329 9.19341L11.8256 12.4734C11.8756 12.7514 11.7583 13.0327 11.5256 13.1934C11.2976 13.3601 10.9943 13.3801 10.7456 13.2467L7.79292 11.7067C7.69026 11.6521 7.57626 11.6227 7.45959 11.6194H7.27892C7.21626 11.6287 7.15493 11.6487 7.09893 11.6794L4.14559 13.2267C3.99959 13.3001 3.83426 13.3261 3.67226 13.3001C3.27759 13.2254 3.01426 12.8494 3.07893 12.4527L3.67226 9.17275C3.71159 8.93341 3.63226 8.69008 3.45959 8.52008L1.05226 6.18675C0.850925 5.99141 0.780925 5.69808 0.872925 5.43341C0.962258 5.16941 1.19026 4.97675 1.46559 4.93341L4.77892 4.45275C5.03093 4.42675 5.25226 4.27341 5.36559 4.04675L6.82559 1.05341C6.86026 0.986748 6.90493 0.925415 6.95893 0.873415L7.01892 0.826748C7.05026 0.792081 7.08626 0.763415 7.12626 0.740081L7.19893 0.713415L7.31226 0.666748H7.59293C7.84359 0.692748 8.06426 0.842748 8.17959 1.06675L9.65893 4.04675C9.76559 4.26475 9.97293 4.41608 10.2123 4.45275L13.5256 4.93341C13.8056 4.97341 14.0396 5.16675 14.1323 5.43341C14.2196 5.70075 14.1443 5.99408 13.9389 6.18675L11.4456 8.54675Z" fill="#FA964C"/>
</svg>
